<?xml version="1.0" encoding="utf-8"?>
<!-- Generator: Adobe Illustrator 25.0.0, SVG Export Plug-In . SVG Version: 6.00 Build 0)  -->
<svg version="1.1" id="Layer_1" xmlns="http://www.w3.org/2000/svg" xmlns:xlink="http://www.w3.org/1999/xlink" x="0px" y="0px"
	 viewBox="0 0 100 100" style="enable-background:new 0 0 100 100;" xml:space="preserve">
<style type="text/css">
	.st0{fill:none;}
	.st1{font-family:'MyriadPro-Regular';}
	.st2{font-size:72px;}
	.st3{fill:#FFFFFF;}
</style>
<g>
	<g>
		<rect x="29.92" y="24.79" class="st0" width="61.38" height="71.4"/>
		<text transform="matrix(1 0 0 1 29.9209 75.9111)" class="st1 st2">R</text>
		<g>
			<rect x="32.92" y="24.79" class="st0" width="61.38" height="71.4"/>
			<text transform="matrix(1 0 0 1 32.9209 75.9111)" class="st1 st2">R</text>
			<rect x="32.82" y="24.79" class="st0" width="61.38" height="71.4"/>
			<text transform="matrix(1 0 0 1 32.8209 75.9111)" class="st1 st2">R</text>
			<rect x="32.72" y="24.79" class="st0" width="61.38" height="71.4"/>
			<text transform="matrix(1 0 0 1 32.7209 75.9111)" class="st1 st2">R</text>
			<rect x="32.62" y="24.79" class="st0" width="61.38" height="71.4"/>
			<text transform="matrix(1 0 0 1 32.6209 75.9111)" class="st1 st2">R</text>
			<rect x="32.52" y="24.79" class="st0" width="61.38" height="71.4"/>
			<text transform="matrix(1 0 0 1 32.5209 75.9111)" class="st1 st2">R</text>
			<rect x="32.42" y="24.79" class="st0" width="61.38" height="71.4"/>
			<text transform="matrix(1 0 0 1 32.4209 75.9111)" class="st1 st2">R</text>
			<rect x="32.32" y="24.79" class="st0" width="61.38" height="71.4"/>
			<text transform="matrix(1 0 0 1 32.3209 75.9111)" class="st1 st2">R</text>
			<rect x="32.22" y="24.79" class="st0" width="61.38" height="71.4"/>
			<text transform="matrix(1 0 0 1 32.2209 75.9111)" class="st1 st2">R</text>
			<rect x="32.12" y="24.79" class="st0" width="61.38" height="71.4"/>
			<text transform="matrix(1 0 0 1 32.1209 75.9111)" class="st1 st2">R</text>
			<rect x="32.02" y="24.79" class="st0" width="61.38" height="71.4"/>
			<text transform="matrix(1 0 0 1 32.0209 75.9111)" class="st1 st2">R</text>
			<rect x="31.92" y="24.79" class="st0" width="61.38" height="71.4"/>
			<text transform="matrix(1 0 0 1 31.9209 75.9111)" class="st1 st2">R</text>
			<rect x="31.82" y="24.79" class="st0" width="61.38" height="71.4"/>
			<text transform="matrix(1 0 0 1 31.8209 75.9111)" class="st1 st2">R</text>
			<rect x="31.72" y="24.79" class="st0" width="61.38" height="71.4"/>
			<text transform="matrix(1 0 0 1 31.7209 75.9111)" class="st1 st2">R</text>
			<rect x="31.62" y="24.79" class="st0" width="61.38" height="71.4"/>
			<text transform="matrix(1 0 0 1 31.6209 75.9111)" class="st1 st2">R</text>
			<rect x="31.52" y="24.79" class="st0" width="61.38" height="71.4"/>
			<text transform="matrix(1 0 0 1 31.5209 75.9111)" class="st1 st2">R</text>
			<rect x="31.42" y="24.79" class="st0" width="61.38" height="71.4"/>
			<text transform="matrix(1 0 0 1 31.4209 75.9111)" class="st1 st2">R</text>
			<rect x="31.32" y="24.79" class="st0" width="61.38" height="71.4"/>
			<text transform="matrix(1 0 0 1 31.3209 75.9111)" class="st1 st2">R</text>
			<rect x="31.22" y="24.79" class="st0" width="61.38" height="71.4"/>
			<text transform="matrix(1 0 0 1 31.2209 75.9111)" class="st1 st2">R</text>
			<rect x="31.12" y="24.79" class="st0" width="61.38" height="71.4"/>
			<text transform="matrix(1 0 0 1 31.1209 75.9111)" class="st1 st2">R</text>
			<rect x="31.02" y="24.79" class="st0" width="61.38" height="71.4"/>
			<text transform="matrix(1 0 0 1 31.0209 75.9111)" class="st1 st2">R</text>
			<rect x="30.92" y="24.79" class="st0" width="61.38" height="71.4"/>
			<text transform="matrix(1 0 0 1 30.9209 75.9111)" class="st1 st2">R</text>
			<rect x="30.82" y="24.79" class="st0" width="61.38" height="71.4"/>
			<text transform="matrix(1 0 0 1 30.8209 75.9111)" class="st1 st2">R</text>
			<rect x="30.72" y="24.79" class="st0" width="61.38" height="71.4"/>
			<text transform="matrix(1 0 0 1 30.7209 75.9111)" class="st1 st2">R</text>
			<rect x="30.62" y="24.79" class="st0" width="61.38" height="71.4"/>
			<text transform="matrix(1 0 0 1 30.6209 75.9111)" class="st1 st2">R</text>
			<rect x="30.52" y="24.79" class="st0" width="61.38" height="71.4"/>
			<text transform="matrix(1 0 0 1 30.5209 75.9111)" class="st1 st2">R</text>
			<rect x="30.42" y="24.79" class="st0" width="61.38" height="71.4"/>
			<text transform="matrix(1 0 0 1 30.4209 75.9111)" class="st1 st2">R</text>
			<rect x="30.32" y="24.79" class="st0" width="61.38" height="71.4"/>
			<text transform="matrix(1 0 0 1 30.3209 75.9111)" class="st1 st2">R</text>
			<rect x="30.22" y="24.79" class="st0" width="61.38" height="71.4"/>
			<text transform="matrix(1 0 0 1 30.2209 75.9111)" class="st1 st2">R</text>
			<rect x="30.12" y="24.79" class="st0" width="61.38" height="71.4"/>
			<text transform="matrix(1 0 0 1 30.1209 75.9111)" class="st1 st2">R</text>
			<rect x="30.02" y="24.79" class="st0" width="61.38" height="71.4"/>
			<text transform="matrix(1 0 0 1 30.0209 75.9111)" class="st1 st2">R</text>
			<rect x="29.92" y="24.79" class="st0" width="61.38" height="71.4"/>
			<text transform="matrix(1 0 0 1 29.9209 75.9111)" class="st1 st2">R</text>
		</g>
		<rect x="29.92" y="24.79" class="st0" width="61.38" height="71.4"/>
		<text transform="matrix(1 0 0 1 29.9209 75.9111)" class="st3 st1 st2">R</text>
	</g>
</g>
</svg>
