<?xml version="1.0" encoding="utf-8"?>
<!-- Generator: Adobe Illustrator 25.0.0, SVG Export Plug-In . SVG Version: 6.00 Build 0)  -->
<svg version="1.1" id="Layer_1" xmlns="http://www.w3.org/2000/svg" xmlns:xlink="http://www.w3.org/1999/xlink" x="0px" y="0px"
	 viewBox="0 0 100 100" style="enable-background:new 0 0 100 100;" xml:space="preserve">
<style type="text/css">
	.st0{fill:none;}
	.st1{font-family:'MyriadPro-Regular';}
	.st2{font-size:72px;}
	.st3{fill:#FFFFFF;}
</style>
<g>
	<rect x="27.9" y="23.2" class="st0" width="61.38" height="71.4"/>
	<text transform="matrix(1 0 0 1 27.9022 74.3196)" class="st1 st2">K</text>
	<g>
		<rect x="30.9" y="23.2" class="st0" width="61.38" height="71.4"/>
		<text transform="matrix(1 0 0 1 30.9022 74.3196)" class="st1 st2">K</text>
		<rect x="30.8" y="23.2" class="st0" width="61.38" height="71.4"/>
		<text transform="matrix(1 0 0 1 30.8022 74.3196)" class="st1 st2">K</text>
		<rect x="30.7" y="23.2" class="st0" width="61.38" height="71.4"/>
		<text transform="matrix(1 0 0 1 30.7022 74.3196)" class="st1 st2">K</text>
		<rect x="30.6" y="23.2" class="st0" width="61.38" height="71.4"/>
		<text transform="matrix(1 0 0 1 30.6022 74.3196)" class="st1 st2">K</text>
		<rect x="30.5" y="23.2" class="st0" width="61.38" height="71.4"/>
		<text transform="matrix(1 0 0 1 30.5022 74.3196)" class="st1 st2">K</text>
		<rect x="30.4" y="23.2" class="st0" width="61.38" height="71.4"/>
		<text transform="matrix(1 0 0 1 30.4022 74.3196)" class="st1 st2">K</text>
		<rect x="30.3" y="23.2" class="st0" width="61.38" height="71.4"/>
		<text transform="matrix(1 0 0 1 30.3022 74.3196)" class="st1 st2">K</text>
		<rect x="30.2" y="23.2" class="st0" width="61.38" height="71.4"/>
		<text transform="matrix(1 0 0 1 30.2022 74.3196)" class="st1 st2">K</text>
		<rect x="30.1" y="23.2" class="st0" width="61.38" height="71.4"/>
		<text transform="matrix(1 0 0 1 30.1022 74.3196)" class="st1 st2">K</text>
		<rect x="30" y="23.2" class="st0" width="61.38" height="71.4"/>
		<text transform="matrix(1 0 0 1 30.0022 74.3196)" class="st1 st2">K</text>
		<rect x="29.9" y="23.2" class="st0" width="61.38" height="71.4"/>
		<text transform="matrix(1 0 0 1 29.9022 74.3196)" class="st1 st2">K</text>
		<rect x="29.8" y="23.2" class="st0" width="61.38" height="71.4"/>
		<text transform="matrix(1 0 0 1 29.8022 74.3196)" class="st1 st2">K</text>
		<rect x="29.7" y="23.2" class="st0" width="61.38" height="71.4"/>
		<text transform="matrix(1 0 0 1 29.7022 74.3196)" class="st1 st2">K</text>
		<rect x="29.6" y="23.2" class="st0" width="61.38" height="71.4"/>
		<text transform="matrix(1 0 0 1 29.6022 74.3196)" class="st1 st2">K</text>
		<rect x="29.5" y="23.2" class="st0" width="61.38" height="71.4"/>
		<text transform="matrix(1 0 0 1 29.5022 74.3196)" class="st1 st2">K</text>
		<rect x="29.4" y="23.2" class="st0" width="61.38" height="71.4"/>
		<text transform="matrix(1 0 0 1 29.4022 74.3196)" class="st1 st2">K</text>
		<rect x="29.3" y="23.2" class="st0" width="61.38" height="71.4"/>
		<text transform="matrix(1 0 0 1 29.3022 74.3196)" class="st1 st2">K</text>
		<rect x="29.2" y="23.2" class="st0" width="61.38" height="71.4"/>
		<text transform="matrix(1 0 0 1 29.2022 74.3196)" class="st1 st2">K</text>
		<rect x="29.1" y="23.2" class="st0" width="61.38" height="71.4"/>
		<text transform="matrix(1 0 0 1 29.1022 74.3196)" class="st1 st2">K</text>
		<rect x="29" y="23.2" class="st0" width="61.38" height="71.4"/>
		<text transform="matrix(1 0 0 1 29.0022 74.3196)" class="st1 st2">K</text>
		<rect x="28.9" y="23.2" class="st0" width="61.38" height="71.4"/>
		<text transform="matrix(1 0 0 1 28.9022 74.3196)" class="st1 st2">K</text>
		<rect x="28.8" y="23.2" class="st0" width="61.38" height="71.4"/>
		<text transform="matrix(1 0 0 1 28.8022 74.3196)" class="st1 st2">K</text>
		<rect x="28.7" y="23.2" class="st0" width="61.38" height="71.4"/>
		<text transform="matrix(1 0 0 1 28.7022 74.3196)" class="st1 st2">K</text>
		<rect x="28.6" y="23.2" class="st0" width="61.38" height="71.4"/>
		<text transform="matrix(1 0 0 1 28.6022 74.3196)" class="st1 st2">K</text>
		<rect x="28.5" y="23.2" class="st0" width="61.38" height="71.4"/>
		<text transform="matrix(1 0 0 1 28.5022 74.3196)" class="st1 st2">K</text>
		<rect x="28.4" y="23.2" class="st0" width="61.38" height="71.4"/>
		<text transform="matrix(1 0 0 1 28.4022 74.3196)" class="st1 st2">K</text>
		<rect x="28.3" y="23.2" class="st0" width="61.38" height="71.4"/>
		<text transform="matrix(1 0 0 1 28.3022 74.3196)" class="st1 st2">K</text>
		<rect x="28.2" y="23.2" class="st0" width="61.38" height="71.4"/>
		<text transform="matrix(1 0 0 1 28.2022 74.3196)" class="st1 st2">K</text>
		<rect x="28.1" y="23.2" class="st0" width="61.38" height="71.4"/>
		<text transform="matrix(1 0 0 1 28.1022 74.3196)" class="st1 st2">K</text>
		<rect x="28" y="23.2" class="st0" width="61.38" height="71.4"/>
		<text transform="matrix(1 0 0 1 28.0022 74.3196)" class="st1 st2">K</text>
		<rect x="27.9" y="23.2" class="st0" width="61.38" height="71.4"/>
		<text transform="matrix(1 0 0 1 27.9022 74.3196)" class="st1 st2">K</text>
	</g>
	<rect x="27.9" y="23.2" class="st0" width="61.38" height="71.4"/>
	<text transform="matrix(1 0 0 1 27.9022 74.3196)" class="st3 st1 st2">K</text>
</g>
</svg>
