<?xml version="1.0" encoding="utf-8"?>
<!-- Generator: Adobe Illustrator 25.0.0, SVG Export Plug-In . SVG Version: 6.00 Build 0)  -->
<svg version="1.1" id="Layer_1" xmlns="http://www.w3.org/2000/svg" xmlns:xlink="http://www.w3.org/1999/xlink" x="0px" y="0px"
	 viewBox="0 0 100 100" style="enable-background:new 0 0 100 100;" xml:space="preserve">
<style type="text/css">
	.st0{fill:none;}
	.st1{font-family:'MyriadPro-Regular';}
	.st2{font-size:72px;}
	.st3{fill:#FFFFFF;}
</style>
<g>
	<g>
		<rect x="20.85" y="22.72" class="st0" width="61.38" height="71.4"/>
		<text transform="matrix(1 0 0 1 20.8547 73.841)" class="st1 st2">M</text>
		<g>
			<rect x="23.85" y="22.72" class="st0" width="61.38" height="71.4"/>
			<text transform="matrix(1 0 0 1 23.8548 73.841)" class="st1 st2">M</text>
			<rect x="23.75" y="22.72" class="st0" width="61.38" height="71.4"/>
			<text transform="matrix(1 0 0 1 23.7548 73.841)" class="st1 st2">M</text>
			<rect x="23.65" y="22.72" class="st0" width="61.38" height="71.4"/>
			<text transform="matrix(1 0 0 1 23.6548 73.841)" class="st1 st2">M</text>
			<rect x="23.55" y="22.72" class="st0" width="61.38" height="71.4"/>
			<text transform="matrix(1 0 0 1 23.5548 73.841)" class="st1 st2">M</text>
			<rect x="23.45" y="22.72" class="st0" width="61.38" height="71.4"/>
			<text transform="matrix(1 0 0 1 23.4548 73.841)" class="st1 st2">M</text>
			<rect x="23.35" y="22.72" class="st0" width="61.38" height="71.4"/>
			<text transform="matrix(1 0 0 1 23.3548 73.841)" class="st1 st2">M</text>
			<rect x="23.25" y="22.72" class="st0" width="61.38" height="71.4"/>
			<text transform="matrix(1 0 0 1 23.2548 73.841)" class="st1 st2">M</text>
			<rect x="23.15" y="22.72" class="st0" width="61.38" height="71.4"/>
			<text transform="matrix(1 0 0 1 23.1548 73.841)" class="st1 st2">M</text>
			<rect x="23.05" y="22.72" class="st0" width="61.38" height="71.4"/>
			<text transform="matrix(1 0 0 1 23.0548 73.841)" class="st1 st2">M</text>
			<rect x="22.95" y="22.72" class="st0" width="61.38" height="71.4"/>
			<text transform="matrix(1 0 0 1 22.9548 73.841)" class="st1 st2">M</text>
			<rect x="22.85" y="22.72" class="st0" width="61.38" height="71.4"/>
			<text transform="matrix(1 0 0 1 22.8548 73.841)" class="st1 st2">M</text>
			<rect x="22.75" y="22.72" class="st0" width="61.38" height="71.4"/>
			<text transform="matrix(1 0 0 1 22.7548 73.841)" class="st1 st2">M</text>
			<rect x="22.65" y="22.72" class="st0" width="61.38" height="71.4"/>
			<text transform="matrix(1 0 0 1 22.6548 73.841)" class="st1 st2">M</text>
			<rect x="22.55" y="22.72" class="st0" width="61.38" height="71.4"/>
			<text transform="matrix(1 0 0 1 22.5548 73.841)" class="st1 st2">M</text>
			<rect x="22.45" y="22.72" class="st0" width="61.38" height="71.4"/>
			<text transform="matrix(1 0 0 1 22.4548 73.841)" class="st1 st2">M</text>
			<rect x="22.35" y="22.72" class="st0" width="61.38" height="71.4"/>
			<text transform="matrix(1 0 0 1 22.3548 73.841)" class="st1 st2">M</text>
			<rect x="22.25" y="22.72" class="st0" width="61.38" height="71.4"/>
			<text transform="matrix(1 0 0 1 22.2548 73.841)" class="st1 st2">M</text>
			<rect x="22.15" y="22.72" class="st0" width="61.38" height="71.4"/>
			<text transform="matrix(1 0 0 1 22.1548 73.841)" class="st1 st2">M</text>
			<rect x="22.05" y="22.72" class="st0" width="61.38" height="71.4"/>
			<text transform="matrix(1 0 0 1 22.0548 73.841)" class="st1 st2">M</text>
			<rect x="21.95" y="22.72" class="st0" width="61.38" height="71.4"/>
			<text transform="matrix(1 0 0 1 21.9548 73.841)" class="st1 st2">M</text>
			<rect x="21.85" y="22.72" class="st0" width="61.38" height="71.4"/>
			<text transform="matrix(1 0 0 1 21.8548 73.841)" class="st1 st2">M</text>
			<rect x="21.75" y="22.72" class="st0" width="61.38" height="71.4"/>
			<text transform="matrix(1 0 0 1 21.7548 73.841)" class="st1 st2">M</text>
			<rect x="21.65" y="22.72" class="st0" width="61.38" height="71.4"/>
			<text transform="matrix(1 0 0 1 21.6548 73.841)" class="st1 st2">M</text>
			<rect x="21.55" y="22.72" class="st0" width="61.38" height="71.4"/>
			<text transform="matrix(1 0 0 1 21.5548 73.841)" class="st1 st2">M</text>
			<rect x="21.45" y="22.72" class="st0" width="61.38" height="71.4"/>
			<text transform="matrix(1 0 0 1 21.4548 73.841)" class="st1 st2">M</text>
			<rect x="21.35" y="22.72" class="st0" width="61.38" height="71.4"/>
			<text transform="matrix(1 0 0 1 21.3547 73.841)" class="st1 st2">M</text>
			<rect x="21.25" y="22.72" class="st0" width="61.38" height="71.4"/>
			<text transform="matrix(1 0 0 1 21.2547 73.841)" class="st1 st2">M</text>
			<rect x="21.15" y="22.72" class="st0" width="61.38" height="71.4"/>
			<text transform="matrix(1 0 0 1 21.1547 73.841)" class="st1 st2">M</text>
			<rect x="21.05" y="22.72" class="st0" width="61.38" height="71.4"/>
			<text transform="matrix(1 0 0 1 21.0547 73.841)" class="st1 st2">M</text>
			<rect x="20.95" y="22.72" class="st0" width="61.38" height="71.4"/>
			<text transform="matrix(1 0 0 1 20.9547 73.841)" class="st1 st2">M</text>
			<rect x="20.85" y="22.72" class="st0" width="61.38" height="71.4"/>
			<text transform="matrix(1 0 0 1 20.8547 73.841)" class="st1 st2">M</text>
		</g>
		<rect x="20.85" y="22.72" class="st0" width="61.38" height="71.4"/>
		<text transform="matrix(1 0 0 1 20.8547 73.841)" class="st3 st1 st2">M</text>
	</g>
</g>
</svg>
