<?xml version="1.0" encoding="utf-8"?>
<!-- Generator: Adobe Illustrator 25.0.0, SVG Export Plug-In . SVG Version: 6.00 Build 0)  -->
<svg version="1.1" id="Layer_1" xmlns="http://www.w3.org/2000/svg" xmlns:xlink="http://www.w3.org/1999/xlink" x="0px" y="0px"
	 viewBox="0 0 100 100" style="enable-background:new 0 0 100 100;" xml:space="preserve">
<style type="text/css">
	.st0{fill:none;}
	.st1{font-family:'MyriadPro-Regular';}
	.st2{font-size:72px;}
	.st3{fill:#FFFFFF;}
</style>
<g>
	<g>
		<rect x="26.36" y="23.72" class="st0" width="61.38" height="71.4"/>
		<text transform="matrix(1 0 0 1 26.3622 74.8408)" class="st1 st2">A</text>
		<g>
			<rect x="29.36" y="23.72" class="st0" width="61.38" height="71.4"/>
			<text transform="matrix(1 0 0 1 29.3623 74.8408)" class="st1 st2">A</text>
			<rect x="29.26" y="23.72" class="st0" width="61.38" height="71.4"/>
			<text transform="matrix(1 0 0 1 29.2623 74.8408)" class="st1 st2">A</text>
			<rect x="29.16" y="23.72" class="st0" width="61.38" height="71.4"/>
			<text transform="matrix(1 0 0 1 29.1623 74.8408)" class="st1 st2">A</text>
			<rect x="29.06" y="23.72" class="st0" width="61.38" height="71.4"/>
			<text transform="matrix(1 0 0 1 29.0623 74.8408)" class="st1 st2">A</text>
			<rect x="28.96" y="23.72" class="st0" width="61.38" height="71.4"/>
			<text transform="matrix(1 0 0 1 28.9623 74.8408)" class="st1 st2">A</text>
			<rect x="28.86" y="23.72" class="st0" width="61.38" height="71.4"/>
			<text transform="matrix(1 0 0 1 28.8623 74.8408)" class="st1 st2">A</text>
			<rect x="28.76" y="23.72" class="st0" width="61.38" height="71.4"/>
			<text transform="matrix(1 0 0 1 28.7623 74.8408)" class="st1 st2">A</text>
			<rect x="28.66" y="23.72" class="st0" width="61.38" height="71.4"/>
			<text transform="matrix(1 0 0 1 28.6623 74.8408)" class="st1 st2">A</text>
			<rect x="28.56" y="23.72" class="st0" width="61.38" height="71.4"/>
			<text transform="matrix(1 0 0 1 28.5623 74.8408)" class="st1 st2">A</text>
			<rect x="28.46" y="23.72" class="st0" width="61.38" height="71.4"/>
			<text transform="matrix(1 0 0 1 28.4623 74.8408)" class="st1 st2">A</text>
			<rect x="28.36" y="23.72" class="st0" width="61.38" height="71.4"/>
			<text transform="matrix(1 0 0 1 28.3623 74.8408)" class="st1 st2">A</text>
			<rect x="28.26" y="23.72" class="st0" width="61.38" height="71.4"/>
			<text transform="matrix(1 0 0 1 28.2623 74.8408)" class="st1 st2">A</text>
			<rect x="28.16" y="23.72" class="st0" width="61.38" height="71.4"/>
			<text transform="matrix(1 0 0 1 28.1623 74.8408)" class="st1 st2">A</text>
			<rect x="28.06" y="23.72" class="st0" width="61.38" height="71.4"/>
			<text transform="matrix(1 0 0 1 28.0623 74.8408)" class="st1 st2">A</text>
			<rect x="27.96" y="23.72" class="st0" width="61.38" height="71.4"/>
			<text transform="matrix(1 0 0 1 27.9622 74.8408)" class="st1 st2">A</text>
			<rect x="27.86" y="23.72" class="st0" width="61.38" height="71.4"/>
			<text transform="matrix(1 0 0 1 27.8622 74.8408)" class="st1 st2">A</text>
			<rect x="27.76" y="23.72" class="st0" width="61.38" height="71.4"/>
			<text transform="matrix(1 0 0 1 27.7622 74.8408)" class="st1 st2">A</text>
			<rect x="27.66" y="23.72" class="st0" width="61.38" height="71.4"/>
			<text transform="matrix(1 0 0 1 27.6622 74.8408)" class="st1 st2">A</text>
			<rect x="27.56" y="23.72" class="st0" width="61.38" height="71.4"/>
			<text transform="matrix(1 0 0 1 27.5622 74.8408)" class="st1 st2">A</text>
			<rect x="27.46" y="23.72" class="st0" width="61.38" height="71.4"/>
			<text transform="matrix(1 0 0 1 27.4622 74.8408)" class="st1 st2">A</text>
			<rect x="27.36" y="23.72" class="st0" width="61.38" height="71.4"/>
			<text transform="matrix(1 0 0 1 27.3622 74.8408)" class="st1 st2">A</text>
			<rect x="27.26" y="23.72" class="st0" width="61.38" height="71.4"/>
			<text transform="matrix(1 0 0 1 27.2622 74.8408)" class="st1 st2">A</text>
			<rect x="27.16" y="23.72" class="st0" width="61.38" height="71.4"/>
			<text transform="matrix(1 0 0 1 27.1622 74.8408)" class="st1 st2">A</text>
			<rect x="27.06" y="23.72" class="st0" width="61.38" height="71.4"/>
			<text transform="matrix(1 0 0 1 27.0622 74.8408)" class="st1 st2">A</text>
			<rect x="26.96" y="23.72" class="st0" width="61.38" height="71.4"/>
			<text transform="matrix(1 0 0 1 26.9622 74.8408)" class="st1 st2">A</text>
			<rect x="26.86" y="23.72" class="st0" width="61.38" height="71.4"/>
			<text transform="matrix(1 0 0 1 26.8622 74.8408)" class="st1 st2">A</text>
			<rect x="26.76" y="23.72" class="st0" width="61.38" height="71.4"/>
			<text transform="matrix(1 0 0 1 26.7622 74.8408)" class="st1 st2">A</text>
			<rect x="26.66" y="23.72" class="st0" width="61.38" height="71.4"/>
			<text transform="matrix(1 0 0 1 26.6622 74.8408)" class="st1 st2">A</text>
			<rect x="26.56" y="23.72" class="st0" width="61.38" height="71.4"/>
			<text transform="matrix(1 0 0 1 26.5622 74.8408)" class="st1 st2">A</text>
			<rect x="26.46" y="23.72" class="st0" width="61.38" height="71.4"/>
			<text transform="matrix(1 0 0 1 26.4622 74.8408)" class="st1 st2">A</text>
			<rect x="26.36" y="23.72" class="st0" width="61.38" height="71.4"/>
			<text transform="matrix(1 0 0 1 26.3622 74.8408)" class="st1 st2">A</text>
		</g>
		<rect x="26.36" y="23.72" class="st0" width="61.38" height="71.4"/>
		<text transform="matrix(1 0 0 1 26.3622 74.8408)" class="st3 st1 st2">A</text>
	</g>
</g>
</svg>
