<?xml version="1.0" encoding="utf-8"?>
<!-- Generator: Adobe Illustrator 25.0.0, SVG Export Plug-In . SVG Version: 6.00 Build 0)  -->
<svg version="1.1" id="Layer_1" xmlns="http://www.w3.org/2000/svg" xmlns:xlink="http://www.w3.org/1999/xlink" x="0px" y="0px"
	 viewBox="0 0 100 100" style="enable-background:new 0 0 100 100;" xml:space="preserve">
<style type="text/css">
	.st0{display:none;fill:#1D1D1B;}
	.st1{fill:none;}
	.st2{fill:#F7931E;}
	.st3{font-family:'MyriadPro-Regular';}
	.st4{font-size:72px;}
	.st5{fill:#1D1D1B;}
	.st6{fill:#FFFFFF;}
</style>
<rect x="8" y="7" class="st0" width="79" height="79"/>
<g>
	<rect x="24.55" y="24" class="st1" width="58.45" height="56"/>
	<text transform="matrix(1 0 0 1 24.5542 75.1191)" class="st2 st3 st4">G</text>
	<g>
		<rect x="27.55" y="24" class="st1" width="58.45" height="56"/>
		<text transform="matrix(1 0 0 1 27.5542 75.1191)" class="st5 st3 st4">G</text>
		<rect x="27.45" y="24" class="st1" width="58.45" height="56"/>
		<text transform="matrix(1 0 0 1 27.4542 75.1191)" class="st5 st3 st4">G</text>
		<rect x="27.35" y="24" class="st1" width="58.45" height="56"/>
		<text transform="matrix(1 0 0 1 27.3542 75.1191)" class="st5 st3 st4">G</text>
		<rect x="27.25" y="24" class="st1" width="58.45" height="56"/>
		<text transform="matrix(1 0 0 1 27.2542 75.1191)" class="st5 st3 st4">G</text>
		<rect x="27.15" y="24" class="st1" width="58.45" height="56"/>
		<text transform="matrix(1 0 0 1 27.1542 75.1191)" class="st5 st3 st4">G</text>
		<rect x="27.05" y="24" class="st1" width="58.45" height="56"/>
		<text transform="matrix(1 0 0 1 27.0542 75.1191)" class="st5 st3 st4">G</text>
		<rect x="26.95" y="24" class="st1" width="58.45" height="56"/>
		<text transform="matrix(1 0 0 1 26.9542 75.1191)" class="st5 st3 st4">G</text>
		<rect x="26.85" y="24" class="st1" width="58.45" height="56"/>
		<text transform="matrix(1 0 0 1 26.8542 75.1191)" class="st5 st3 st4">G</text>
		<rect x="26.75" y="24" class="st1" width="58.45" height="56"/>
		<text transform="matrix(1 0 0 1 26.7542 75.1191)" class="st5 st3 st4">G</text>
		<rect x="26.65" y="24" class="st1" width="58.45" height="56"/>
		<text transform="matrix(1 0 0 1 26.6542 75.1191)" class="st5 st3 st4">G</text>
		<rect x="26.55" y="24" class="st1" width="58.45" height="56"/>
		<text transform="matrix(1 0 0 1 26.5542 75.1191)" class="st5 st3 st4">G</text>
		<rect x="26.45" y="24" class="st1" width="58.45" height="56"/>
		<text transform="matrix(1 0 0 1 26.4542 75.1191)" class="st5 st3 st4">G</text>
		<rect x="26.35" y="24" class="st1" width="58.45" height="56"/>
		<text transform="matrix(1 0 0 1 26.3542 75.1191)" class="st5 st3 st4">G</text>
		<rect x="26.25" y="24" class="st1" width="58.45" height="56"/>
		<text transform="matrix(1 0 0 1 26.2542 75.1191)" class="st5 st3 st4">G</text>
		<rect x="26.15" y="24" class="st1" width="58.45" height="56"/>
		<text transform="matrix(1 0 0 1 26.1542 75.1191)" class="st5 st3 st4">G</text>
		<rect x="26.05" y="24" class="st1" width="58.45" height="56"/>
		<text transform="matrix(1 0 0 1 26.0542 75.1191)" class="st5 st3 st4">G</text>
		<rect x="25.95" y="24" class="st1" width="58.45" height="56"/>
		<text transform="matrix(1 0 0 1 25.9542 75.1191)" class="st5 st3 st4">G</text>
		<rect x="25.85" y="24" class="st1" width="58.45" height="56"/>
		<text transform="matrix(1 0 0 1 25.8542 75.1191)" class="st5 st3 st4">G</text>
		<rect x="25.75" y="24" class="st1" width="58.45" height="56"/>
		<text transform="matrix(1 0 0 1 25.7542 75.1191)" class="st5 st3 st4">G</text>
		<rect x="25.65" y="24" class="st1" width="58.45" height="56"/>
		<text transform="matrix(1 0 0 1 25.6542 75.1191)" class="st5 st3 st4">G</text>
		<rect x="25.55" y="24" class="st1" width="58.45" height="56"/>
		<text transform="matrix(1 0 0 1 25.5542 75.1191)" class="st5 st3 st4">G</text>
		<rect x="25.45" y="24" class="st1" width="58.45" height="56"/>
		<text transform="matrix(1 0 0 1 25.4542 75.1191)" class="st5 st3 st4">G</text>
		<rect x="25.35" y="24" class="st1" width="58.45" height="56"/>
		<text transform="matrix(1 0 0 1 25.3542 75.1191)" class="st5 st3 st4">G</text>
		<rect x="25.25" y="24" class="st1" width="58.45" height="56"/>
		<text transform="matrix(1 0 0 1 25.2542 75.1191)" class="st5 st3 st4">G</text>
		<rect x="25.15" y="24" class="st1" width="58.45" height="56"/>
		<text transform="matrix(1 0 0 1 25.1542 75.1191)" class="st5 st3 st4">G</text>
		<rect x="25.05" y="24" class="st1" width="58.45" height="56"/>
		<text transform="matrix(1 0 0 1 25.0542 75.1191)" class="st5 st3 st4">G</text>
		<rect x="24.95" y="24" class="st1" width="58.45" height="56"/>
		<text transform="matrix(1 0 0 1 24.9542 75.1191)" class="st5 st3 st4">G</text>
		<rect x="24.85" y="24" class="st1" width="58.45" height="56"/>
		<text transform="matrix(1 0 0 1 24.8542 75.1191)" class="st5 st3 st4">G</text>
		<rect x="24.75" y="24" class="st1" width="58.45" height="56"/>
		<text transform="matrix(1 0 0 1 24.7542 75.1191)" class="st5 st3 st4">G</text>
		<rect x="24.65" y="24" class="st1" width="58.45" height="56"/>
		<text transform="matrix(1 0 0 1 24.6542 75.1191)" class="st5 st3 st4">G</text>
		<rect x="24.55" y="24" class="st1" width="58.45" height="56"/>
		<text transform="matrix(1 0 0 1 24.5542 75.1191)" class="st5 st3 st4">G</text>
	</g>
	<rect x="24.55" y="24" class="st1" width="58.45" height="56"/>
	<text transform="matrix(1 0 0 1 24.5542 75.1191)" class="st6 st3 st4">G</text>
</g>
</svg>
