<?xml version="1.0" encoding="utf-8"?>
<!-- Generator: Adobe Illustrator 25.0.0, SVG Export Plug-In . SVG Version: 6.00 Build 0)  -->
<svg version="1.1" id="Layer_1" xmlns="http://www.w3.org/2000/svg" xmlns:xlink="http://www.w3.org/1999/xlink" x="0px" y="0px"
	 viewBox="0 0 100 100" style="enable-background:new 0 0 100 100;" xml:space="preserve">
<style type="text/css">
	.st0{fill:none;}
	.st1{font-family:'MyriadPro-Regular';}
	.st2{font-size:72px;}
	.st3{fill:#FFFFFF;}
</style>
<g>
	<g>
		<rect x="27.36" y="24.22" class="st0" width="61.38" height="71.4"/>
		<text transform="matrix(1 0 0 1 27.3623 75.3407)" class="st1 st2">N</text>
		<g>
			<rect x="30.36" y="24.22" class="st0" width="61.38" height="71.4"/>
			<text transform="matrix(1 0 0 1 30.3623 75.3407)" class="st1 st2">N</text>
			<rect x="30.26" y="24.22" class="st0" width="61.38" height="71.4"/>
			<text transform="matrix(1 0 0 1 30.2623 75.3407)" class="st1 st2">N</text>
			<rect x="30.16" y="24.22" class="st0" width="61.38" height="71.4"/>
			<text transform="matrix(1 0 0 1 30.1623 75.3407)" class="st1 st2">N</text>
			<rect x="30.06" y="24.22" class="st0" width="61.38" height="71.4"/>
			<text transform="matrix(1 0 0 1 30.0623 75.3407)" class="st1 st2">N</text>
			<rect x="29.96" y="24.22" class="st0" width="61.38" height="71.4"/>
			<text transform="matrix(1 0 0 1 29.9623 75.3407)" class="st1 st2">N</text>
			<rect x="29.86" y="24.22" class="st0" width="61.38" height="71.4"/>
			<text transform="matrix(1 0 0 1 29.8623 75.3407)" class="st1 st2">N</text>
			<rect x="29.76" y="24.22" class="st0" width="61.38" height="71.4"/>
			<text transform="matrix(1 0 0 1 29.7623 75.3407)" class="st1 st2">N</text>
			<rect x="29.66" y="24.22" class="st0" width="61.38" height="71.4"/>
			<text transform="matrix(1 0 0 1 29.6623 75.3407)" class="st1 st2">N</text>
			<rect x="29.56" y="24.22" class="st0" width="61.38" height="71.4"/>
			<text transform="matrix(1 0 0 1 29.5623 75.3407)" class="st1 st2">N</text>
			<rect x="29.46" y="24.22" class="st0" width="61.38" height="71.4"/>
			<text transform="matrix(1 0 0 1 29.4623 75.3407)" class="st1 st2">N</text>
			<rect x="29.36" y="24.22" class="st0" width="61.38" height="71.4"/>
			<text transform="matrix(1 0 0 1 29.3623 75.3407)" class="st1 st2">N</text>
			<rect x="29.26" y="24.22" class="st0" width="61.38" height="71.4"/>
			<text transform="matrix(1 0 0 1 29.2623 75.3407)" class="st1 st2">N</text>
			<rect x="29.16" y="24.22" class="st0" width="61.38" height="71.4"/>
			<text transform="matrix(1 0 0 1 29.1623 75.3407)" class="st1 st2">N</text>
			<rect x="29.06" y="24.22" class="st0" width="61.38" height="71.4"/>
			<text transform="matrix(1 0 0 1 29.0623 75.3407)" class="st1 st2">N</text>
			<rect x="28.96" y="24.22" class="st0" width="61.38" height="71.4"/>
			<text transform="matrix(1 0 0 1 28.9623 75.3407)" class="st1 st2">N</text>
			<rect x="28.86" y="24.22" class="st0" width="61.38" height="71.4"/>
			<text transform="matrix(1 0 0 1 28.8623 75.3407)" class="st1 st2">N</text>
			<rect x="28.76" y="24.22" class="st0" width="61.38" height="71.4"/>
			<text transform="matrix(1 0 0 1 28.7623 75.3407)" class="st1 st2">N</text>
			<rect x="28.66" y="24.22" class="st0" width="61.38" height="71.4"/>
			<text transform="matrix(1 0 0 1 28.6623 75.3407)" class="st1 st2">N</text>
			<rect x="28.56" y="24.22" class="st0" width="61.38" height="71.4"/>
			<text transform="matrix(1 0 0 1 28.5623 75.3407)" class="st1 st2">N</text>
			<rect x="28.46" y="24.22" class="st0" width="61.38" height="71.4"/>
			<text transform="matrix(1 0 0 1 28.4623 75.3407)" class="st1 st2">N</text>
			<rect x="28.36" y="24.22" class="st0" width="61.38" height="71.4"/>
			<text transform="matrix(1 0 0 1 28.3623 75.3407)" class="st1 st2">N</text>
			<rect x="28.26" y="24.22" class="st0" width="61.38" height="71.4"/>
			<text transform="matrix(1 0 0 1 28.2623 75.3407)" class="st1 st2">N</text>
			<rect x="28.16" y="24.22" class="st0" width="61.38" height="71.4"/>
			<text transform="matrix(1 0 0 1 28.1623 75.3407)" class="st1 st2">N</text>
			<rect x="28.06" y="24.22" class="st0" width="61.38" height="71.4"/>
			<text transform="matrix(1 0 0 1 28.0623 75.3407)" class="st1 st2">N</text>
			<rect x="27.96" y="24.22" class="st0" width="61.38" height="71.4"/>
			<text transform="matrix(1 0 0 1 27.9623 75.3407)" class="st1 st2">N</text>
			<rect x="27.86" y="24.22" class="st0" width="61.38" height="71.4"/>
			<text transform="matrix(1 0 0 1 27.8623 75.3407)" class="st1 st2">N</text>
			<rect x="27.76" y="24.22" class="st0" width="61.38" height="71.4"/>
			<text transform="matrix(1 0 0 1 27.7623 75.3407)" class="st1 st2">N</text>
			<rect x="27.66" y="24.22" class="st0" width="61.38" height="71.4"/>
			<text transform="matrix(1 0 0 1 27.6623 75.3407)" class="st1 st2">N</text>
			<rect x="27.56" y="24.22" class="st0" width="61.38" height="71.4"/>
			<text transform="matrix(1 0 0 1 27.5623 75.3407)" class="st1 st2">N</text>
			<rect x="27.46" y="24.22" class="st0" width="61.38" height="71.4"/>
			<text transform="matrix(1 0 0 1 27.4623 75.3407)" class="st1 st2">N</text>
			<rect x="27.36" y="24.22" class="st0" width="61.38" height="71.4"/>
			<text transform="matrix(1 0 0 1 27.3623 75.3407)" class="st1 st2">N</text>
		</g>
		<rect x="27.36" y="24.22" class="st0" width="61.38" height="71.4"/>
		<text transform="matrix(1 0 0 1 27.3623 75.3407)" class="st3 st1 st2">N</text>
	</g>
</g>
</svg>
