<?xml version="1.0" encoding="utf-8"?>
<!-- Generator: Adobe Illustrator 25.0.0, SVG Export Plug-In . SVG Version: 6.00 Build 0)  -->
<svg version="1.1" id="Layer_1" xmlns="http://www.w3.org/2000/svg" xmlns:xlink="http://www.w3.org/1999/xlink" x="0px" y="0px"
	 viewBox="0 0 100 100" style="enable-background:new 0 0 100 100;" xml:space="preserve">
<style type="text/css">
	.st0{fill:none;}
	.st1{font-family:'MyriadPro-Regular';}
	.st2{font-size:72px;}
	.st3{fill:#FFFFFF;}
</style>
<g>
	<rect x="30.9" y="23.2" class="st0" width="61.38" height="71.4"/>
	<text transform="matrix(1 0 0 1 30.9022 74.3196)" class="st1 st2">S</text>
	<g>
		<rect x="33.9" y="23.2" class="st0" width="61.38" height="71.4"/>
		<text transform="matrix(1 0 0 1 33.9022 74.3196)" class="st1 st2">S</text>
		<rect x="33.8" y="23.2" class="st0" width="61.38" height="71.4"/>
		<text transform="matrix(1 0 0 1 33.8022 74.3196)" class="st1 st2">S</text>
		<rect x="33.7" y="23.2" class="st0" width="61.38" height="71.4"/>
		<text transform="matrix(1 0 0 1 33.7022 74.3196)" class="st1 st2">S</text>
		<rect x="33.6" y="23.2" class="st0" width="61.38" height="71.4"/>
		<text transform="matrix(1 0 0 1 33.6022 74.3196)" class="st1 st2">S</text>
		<rect x="33.5" y="23.2" class="st0" width="61.38" height="71.4"/>
		<text transform="matrix(1 0 0 1 33.5022 74.3196)" class="st1 st2">S</text>
		<rect x="33.4" y="23.2" class="st0" width="61.38" height="71.4"/>
		<text transform="matrix(1 0 0 1 33.4022 74.3196)" class="st1 st2">S</text>
		<rect x="33.3" y="23.2" class="st0" width="61.38" height="71.4"/>
		<text transform="matrix(1 0 0 1 33.3022 74.3196)" class="st1 st2">S</text>
		<rect x="33.2" y="23.2" class="st0" width="61.38" height="71.4"/>
		<text transform="matrix(1 0 0 1 33.2022 74.3196)" class="st1 st2">S</text>
		<rect x="33.1" y="23.2" class="st0" width="61.38" height="71.4"/>
		<text transform="matrix(1 0 0 1 33.1022 74.3196)" class="st1 st2">S</text>
		<rect x="33" y="23.2" class="st0" width="61.38" height="71.4"/>
		<text transform="matrix(1 0 0 1 33.0022 74.3196)" class="st1 st2">S</text>
		<rect x="32.9" y="23.2" class="st0" width="61.38" height="71.4"/>
		<text transform="matrix(1 0 0 1 32.9022 74.3196)" class="st1 st2">S</text>
		<rect x="32.8" y="23.2" class="st0" width="61.38" height="71.4"/>
		<text transform="matrix(1 0 0 1 32.8022 74.3196)" class="st1 st2">S</text>
		<rect x="32.7" y="23.2" class="st0" width="61.38" height="71.4"/>
		<text transform="matrix(1 0 0 1 32.7022 74.3196)" class="st1 st2">S</text>
		<rect x="32.6" y="23.2" class="st0" width="61.38" height="71.4"/>
		<text transform="matrix(1 0 0 1 32.6022 74.3196)" class="st1 st2">S</text>
		<rect x="32.5" y="23.2" class="st0" width="61.38" height="71.4"/>
		<text transform="matrix(1 0 0 1 32.5022 74.3196)" class="st1 st2">S</text>
		<rect x="32.4" y="23.2" class="st0" width="61.38" height="71.4"/>
		<text transform="matrix(1 0 0 1 32.4022 74.3196)" class="st1 st2">S</text>
		<rect x="32.3" y="23.2" class="st0" width="61.38" height="71.4"/>
		<text transform="matrix(1 0 0 1 32.3022 74.3196)" class="st1 st2">S</text>
		<rect x="32.2" y="23.2" class="st0" width="61.38" height="71.4"/>
		<text transform="matrix(1 0 0 1 32.2022 74.3196)" class="st1 st2">S</text>
		<rect x="32.1" y="23.2" class="st0" width="61.38" height="71.4"/>
		<text transform="matrix(1 0 0 1 32.1022 74.3196)" class="st1 st2">S</text>
		<rect x="32" y="23.2" class="st0" width="61.38" height="71.4"/>
		<text transform="matrix(1 0 0 1 32.0022 74.3196)" class="st1 st2">S</text>
		<rect x="31.9" y="23.2" class="st0" width="61.38" height="71.4"/>
		<text transform="matrix(1 0 0 1 31.9022 74.3196)" class="st1 st2">S</text>
		<rect x="31.8" y="23.2" class="st0" width="61.38" height="71.4"/>
		<text transform="matrix(1 0 0 1 31.8022 74.3196)" class="st1 st2">S</text>
		<rect x="31.7" y="23.2" class="st0" width="61.38" height="71.4"/>
		<text transform="matrix(1 0 0 1 31.7022 74.3196)" class="st1 st2">S</text>
		<rect x="31.6" y="23.2" class="st0" width="61.38" height="71.4"/>
		<text transform="matrix(1 0 0 1 31.6022 74.3196)" class="st1 st2">S</text>
		<rect x="31.5" y="23.2" class="st0" width="61.38" height="71.4"/>
		<text transform="matrix(1 0 0 1 31.5022 74.3196)" class="st1 st2">S</text>
		<rect x="31.4" y="23.2" class="st0" width="61.38" height="71.4"/>
		<text transform="matrix(1 0 0 1 31.4022 74.3196)" class="st1 st2">S</text>
		<rect x="31.3" y="23.2" class="st0" width="61.38" height="71.4"/>
		<text transform="matrix(1 0 0 1 31.3022 74.3196)" class="st1 st2">S</text>
		<rect x="31.2" y="23.2" class="st0" width="61.38" height="71.4"/>
		<text transform="matrix(1 0 0 1 31.2022 74.3196)" class="st1 st2">S</text>
		<rect x="31.1" y="23.2" class="st0" width="61.38" height="71.4"/>
		<text transform="matrix(1 0 0 1 31.1022 74.3196)" class="st1 st2">S</text>
		<rect x="31" y="23.2" class="st0" width="61.38" height="71.4"/>
		<text transform="matrix(1 0 0 1 31.0022 74.3196)" class="st1 st2">S</text>
		<rect x="30.9" y="23.2" class="st0" width="61.38" height="71.4"/>
		<text transform="matrix(1 0 0 1 30.9022 74.3196)" class="st1 st2">S</text>
	</g>
	<rect x="30.9" y="23.2" class="st0" width="61.38" height="71.4"/>
	<text transform="matrix(1 0 0 1 30.9022 74.3196)" class="st3 st1 st2">S</text>
</g>
</svg>
