<?xml version="1.0" encoding="utf-8"?>
<!-- Generator: Adobe Illustrator 25.0.0, SVG Export Plug-In . SVG Version: 6.00 Build 0)  -->
<svg version="1.1" id="Layer_1" xmlns="http://www.w3.org/2000/svg" xmlns:xlink="http://www.w3.org/1999/xlink" x="0px" y="0px"
	 viewBox="0 0 100 100" style="enable-background:new 0 0 100 100;" xml:space="preserve">
<style type="text/css">
	.st0{fill:none;}
	.st1{fill:#F7931E;}
	.st2{font-family:'MyriadPro-Regular';}
	.st3{font-size:72px;}
	.st4{fill:#1D1D1B;}
	.st5{fill:#FFFFFF;}
</style>
<g>
	<rect x="20.05" y="24.16" class="st0" width="58.45" height="56"/>
	<text transform="matrix(1 0 0 1 20.0487 75.2838)" class="st1 st2 st3">E</text>
	<g>
		<rect x="23.55" y="24.16" class="st0" width="58.45" height="56"/>
		<text transform="matrix(1 0 0 1 23.5487 75.2838)" class="st4 st2 st3">E</text>
		<rect x="22.85" y="24.16" class="st0" width="58.45" height="56"/>
		<text transform="matrix(1 0 0 1 22.8487 75.2838)" class="st4 st2 st3">E</text>
		<rect x="22.15" y="24.16" class="st0" width="58.45" height="56"/>
		<text transform="matrix(1 0 0 1 22.1487 75.2838)" class="st4 st2 st3">E</text>
		<rect x="21.45" y="24.16" class="st0" width="58.45" height="56"/>
		<text transform="matrix(1 0 0 1 21.4487 75.2838)" class="st4 st2 st3">E</text>
		<rect x="20.75" y="24.16" class="st0" width="58.45" height="56"/>
		<text transform="matrix(1 0 0 1 20.7487 75.2838)" class="st4 st2 st3">E</text>
		<rect x="20.05" y="24.16" class="st0" width="58.45" height="56"/>
		<text transform="matrix(1 0 0 1 20.0487 75.2838)" class="st4 st2 st3">E</text>
	</g>
	<rect x="20.05" y="24.16" class="st0" width="58.45" height="56"/>
	<text transform="matrix(1 0 0 1 20.0487 75.2838)" class="st5 st2 st3">E</text>
</g>
</svg>
