<?xml version="1.0" encoding="utf-8"?>
<!-- Generator: Adobe Illustrator 25.0.0, SVG Export Plug-In . SVG Version: 6.00 Build 0)  -->
<svg version="1.1" id="Layer_1" xmlns="http://www.w3.org/2000/svg" xmlns:xlink="http://www.w3.org/1999/xlink" x="0px" y="0px"
	 viewBox="0 0 100 100" style="enable-background:new 0 0 100 100;" xml:space="preserve">
<style type="text/css">
	.st0{fill:none;}
	.st1{font-family:'MyriadPro-Regular';}
	.st2{font-size:72px;}
	.st3{fill:#FFFFFF;}
</style>
<g>
	<rect x="38.9" y="25.2" class="st0" width="19.1" height="71.4"/>
	<text transform="matrix(1 0 0 1 38.9022 76.3186)" class="st1 st2">I</text>
	<g>
		<rect x="41.9" y="25.2" class="st0" width="19.1" height="71.4"/>
		<text transform="matrix(1 0 0 1 41.9022 76.3186)" class="st1 st2">I</text>
		<rect x="41.8" y="25.2" class="st0" width="19.1" height="71.4"/>
		<text transform="matrix(1 0 0 1 41.8022 76.3186)" class="st1 st2">I</text>
		<rect x="41.7" y="25.2" class="st0" width="19.1" height="71.4"/>
		<text transform="matrix(1 0 0 1 41.7022 76.3186)" class="st1 st2">I</text>
		<rect x="41.6" y="25.2" class="st0" width="19.1" height="71.4"/>
		<text transform="matrix(1 0 0 1 41.6022 76.3186)" class="st1 st2">I</text>
		<rect x="41.5" y="25.2" class="st0" width="19.1" height="71.4"/>
		<text transform="matrix(1 0 0 1 41.5022 76.3186)" class="st1 st2">I</text>
		<rect x="41.4" y="25.2" class="st0" width="19.1" height="71.4"/>
		<text transform="matrix(1 0 0 1 41.4022 76.3186)" class="st1 st2">I</text>
		<rect x="41.3" y="25.2" class="st0" width="19.1" height="71.4"/>
		<text transform="matrix(1 0 0 1 41.3022 76.3186)" class="st1 st2">I</text>
		<rect x="41.2" y="25.2" class="st0" width="19.1" height="71.4"/>
		<text transform="matrix(1 0 0 1 41.2022 76.3186)" class="st1 st2">I</text>
		<rect x="41.1" y="25.2" class="st0" width="19.1" height="71.4"/>
		<text transform="matrix(1 0 0 1 41.1022 76.3186)" class="st1 st2">I</text>
		<rect x="41" y="25.2" class="st0" width="19.1" height="71.4"/>
		<text transform="matrix(1 0 0 1 41.0022 76.3186)" class="st1 st2">I</text>
		<rect x="40.9" y="25.2" class="st0" width="19.1" height="71.4"/>
		<text transform="matrix(1 0 0 1 40.9022 76.3186)" class="st1 st2">I</text>
		<rect x="40.8" y="25.2" class="st0" width="19.1" height="71.4"/>
		<text transform="matrix(1 0 0 1 40.8022 76.3186)" class="st1 st2">I</text>
		<rect x="40.7" y="25.2" class="st0" width="19.1" height="71.4"/>
		<text transform="matrix(1 0 0 1 40.7022 76.3186)" class="st1 st2">I</text>
		<rect x="40.6" y="25.2" class="st0" width="19.1" height="71.4"/>
		<text transform="matrix(1 0 0 1 40.6022 76.3186)" class="st1 st2">I</text>
		<rect x="40.5" y="25.2" class="st0" width="19.1" height="71.4"/>
		<text transform="matrix(1 0 0 1 40.5022 76.3186)" class="st1 st2">I</text>
		<rect x="40.4" y="25.2" class="st0" width="19.1" height="71.4"/>
		<text transform="matrix(1 0 0 1 40.4022 76.3186)" class="st1 st2">I</text>
		<rect x="40.3" y="25.2" class="st0" width="19.1" height="71.4"/>
		<text transform="matrix(1 0 0 1 40.3022 76.3186)" class="st1 st2">I</text>
		<rect x="40.2" y="25.2" class="st0" width="19.1" height="71.4"/>
		<text transform="matrix(1 0 0 1 40.2022 76.3186)" class="st1 st2">I</text>
		<rect x="40.1" y="25.2" class="st0" width="19.1" height="71.4"/>
		<text transform="matrix(1 0 0 1 40.1022 76.3186)" class="st1 st2">I</text>
		<rect x="40" y="25.2" class="st0" width="19.1" height="71.4"/>
		<text transform="matrix(1 0 0 1 40.0022 76.3186)" class="st1 st2">I</text>
		<rect x="39.9" y="25.2" class="st0" width="19.1" height="71.4"/>
		<text transform="matrix(1 0 0 1 39.9022 76.3186)" class="st1 st2">I</text>
		<rect x="39.8" y="25.2" class="st0" width="19.1" height="71.4"/>
		<text transform="matrix(1 0 0 1 39.8022 76.3186)" class="st1 st2">I</text>
		<rect x="39.7" y="25.2" class="st0" width="19.1" height="71.4"/>
		<text transform="matrix(1 0 0 1 39.7022 76.3186)" class="st1 st2">I</text>
		<rect x="39.6" y="25.2" class="st0" width="19.1" height="71.4"/>
		<text transform="matrix(1 0 0 1 39.6022 76.3186)" class="st1 st2">I</text>
		<rect x="39.5" y="25.2" class="st0" width="19.1" height="71.4"/>
		<text transform="matrix(1 0 0 1 39.5022 76.3186)" class="st1 st2">I</text>
		<rect x="39.4" y="25.2" class="st0" width="19.1" height="71.4"/>
		<text transform="matrix(1 0 0 1 39.4022 76.3186)" class="st1 st2">I</text>
		<rect x="39.3" y="25.2" class="st0" width="19.1" height="71.4"/>
		<text transform="matrix(1 0 0 1 39.3022 76.3186)" class="st1 st2">I</text>
		<rect x="39.2" y="25.2" class="st0" width="19.1" height="71.4"/>
		<text transform="matrix(1 0 0 1 39.2022 76.3186)" class="st1 st2">I</text>
		<rect x="39.1" y="25.2" class="st0" width="19.1" height="71.4"/>
		<text transform="matrix(1 0 0 1 39.1022 76.3186)" class="st1 st2">I</text>
		<rect x="39" y="25.2" class="st0" width="19.1" height="71.4"/>
		<text transform="matrix(1 0 0 1 39.0022 76.3186)" class="st1 st2">I</text>
		<rect x="38.9" y="25.2" class="st0" width="19.1" height="71.4"/>
		<text transform="matrix(1 0 0 1 38.9022 76.3186)" class="st1 st2">I</text>
	</g>
	<rect x="38.9" y="25.2" class="st0" width="19.1" height="71.4"/>
	<text transform="matrix(1 0 0 1 38.9022 76.3186)" class="st3 st1 st2">I</text>
</g>
<line class="st0" x1="0" y1="7" x2="50" y2="7"/>
<line class="st0" x1="50" y1="0" x2="50" y2="50"/>
<line class="st0" x1="0" y1="50" x2="50" y2="50"/>
<line class="st0" x1="53" y1="68" x2="103" y2="68"/>
<line class="st0" x1="0" y1="51" x2="50" y2="51"/>
<line class="st0" x1="50" y1="1" x2="50" y2="51"/>
</svg>
